# xmcd
#
# Track frame offsets:
#	150
#	11168
#	22851
#	34722
#	45796
#	56469
#	72328
#	85509
#	95233
#	107328
#	123462
#	133126
#
# Disc length: 1942 seconds
#
# Revision: 2
# Processed by: cddbd v1.5.2PL0 Copyright (c) Steve Scherf et al.
# Submitted via: EasyCDDAExtractor 12.0.7.1
#
DISCID=9007940c
DTITLE=Texas Music Trail - Keep On Truckin'
DYEAR=1900
DGENRE=Country - Dansk
TTITLE0=Den Sidste Country Sang
TTITLE1=Minder Hos En Langturschauffør
TTITLE2=Mærket Af Mit Liv
TTITLE3=Seks Dage På Tourne
TTITLE4=Keep On Truckin'
TTITLE5=Kære
TTITLE6=Det Sidste Farvel
TTITLE7=Kate
TTITLE8=Den Gamle Del Af Byen
TTITLE9=Hva' Skulle Jeg Så Gå Og Være Ked Af
TTITLE10=Lænket
TTITLE11=Jeg Vil Bo På Vesterbro
EXTD=
EXTT0=
EXTT1=
EXTT2=
EXTT3=
EXTT4=
EXTT5=
EXTT6=
EXTT7=
EXTT8=
EXTT9=
EXTT10=
EXTT11=
PLAYORDER=
